<svg width="112" height="64" viewBox="0 0 112 64" fill="none" xmlns="http://www.w3.org/2000/svg">
    <path d="M4.88678 15.6459C4.33436 16.0878 3.94767 16.7507 3.78195 17.5241C3.67146 18.2423 3.78194 19.1261 4.27912 19.8995C4.33436 19.9548 4.3896 20.0653 4.44484 20.1205C4.66581 20.3967 4.94201 20.6729 5.21822 21.0044C8.31174 23.8769 12.0682 25.9761 15.2722 27.5781C17.4818 28.6829 18.7524 29.8982 19.2496 31.7764C19.9677 28.3514 19.2496 26.639 18.5867 25.6446C17.4266 23.7664 15.5484 22.8826 15.3827 22.7721C12.7311 21.2806 9.08512 19.5128 6.87547 17.6346C6.04684 16.9165 5.38395 16.1983 5.10774 15.4249C5.0525 15.4802 4.94202 15.5354 4.88678 15.6459Z" fill="url(#paint0_linear_1332_40104)"/>
    <path d="M3.45049 21.833C2.62187 22.6064 2.06946 23.7665 2.06946 24.7608C2.06946 25.5342 2.17994 26.3076 2.89808 27.5229C5.54967 32.0527 14.0016 35.5882 16.1008 36.8587C17.6475 37.7978 18.9181 39.1789 19.36 41.278C19.7467 38.9026 19.8572 36.3615 19.1943 34.8147C18.3657 32.8813 17.2056 31.8317 15.4931 30.8926C12.7311 29.4011 8.80892 27.1362 5.82588 24.4293C4.77629 23.6007 3.89243 22.7721 3.45049 21.833Z" fill="url(#paint1_linear_1332_40104)"/>
    <path d="M10.1347 17.6346C8.25651 18.7947 5.54967 19.789 3.50574 21.833C2.62188 22.6064 2.06946 23.7664 2.06946 24.7608C2.06946 25.5342 2.17994 26.3075 2.89808 27.5228C2.89808 26.5837 3.83719 25.1475 5.66015 24.0979C7.59361 22.9378 10.9081 21.3358 12.952 19.0157C14.2226 17.5794 13.4492 15.8116 11.9024 15.3697C12.2339 16.3641 10.7976 17.1927 10.1347 17.6346Z" fill="url(#paint2_linear_1332_40104)"/>
    <path d="M8.25651 13.602C7.3174 14.0439 6.15734 14.5963 5.10775 15.3697C4.99726 15.425 4.94202 15.5355 4.83154 15.5907C4.27913 16.0326 3.89244 16.6955 3.72671 17.4689C3.61623 18.187 3.72671 19.0709 4.22388 19.8443C4.27912 19.8995 4.33437 20.01 4.38961 20.0653C4.44485 18.9052 5.32871 18.0766 6.76499 17.3584C8.20127 16.585 9.52707 15.6459 10.3557 14.8173C11.35 13.7677 10.5214 12.1657 9.58231 12C9.80328 12.8286 8.91941 13.3258 8.25651 13.602Z" fill="url(#paint3_linear_1332_40104)"/>
    <path d="M1.35133 30.2297C-0.4164 32.7155 -0.305913 34.7595 0.854158 36.5825C2.84285 39.6207 7.81459 41.9409 11.792 43.9296C13.7254 44.9239 15.4931 45.9735 16.9294 47.6307C17.8685 48.7356 18.6972 50.0614 19.2496 51.7739H19.3048C19.7467 49.3432 19.6915 46.2497 19.0838 44.5372C18.5314 42.88 17.3161 41.1675 14.8855 39.6207C11.7367 37.632 6.87548 35.8091 4.00292 33.1022C2.89809 31.9422 1.79326 31.1135 1.35133 30.2297C1.40657 30.2297 1.40657 30.2297 1.35133 30.2297Z" fill="url(#paint4_linear_1332_40104)"/>
    <path d="M12.952 22.1092C9.969 24.3188 4.1134 27.0809 1.40657 30.1744C1.40657 30.1744 1.40657 30.2297 1.35133 30.2297C-0.4164 32.7155 -0.305913 34.7595 0.854158 36.5824C0.854158 35.6433 2.2352 34.3175 4.05817 32.8813C7.26217 30.2849 12.952 27.9648 16.156 23.8217C17.3161 22.3301 16.5427 19.8995 14.8303 19.2366C15.2169 20.1757 14.1673 21.1701 12.952 22.1092Z" fill="url(#paint5_linear_1332_40104)"/>
    <path d="M32.0275 23.0483V26.5995H32.4523V28.5724H30.8586V27.7833H28.5218V28.5724H26.9281V26.5995H27.3529C27.6717 26.0076 27.7777 25.3171 27.7777 24.2321V23.0483H32.0275ZM29.3715 24.1334V24.6266C29.3715 25.4158 29.2654 26.1063 28.9467 26.5995H30.3277V24.1334H29.3715Z" fill="#0767B0"/>
    <path d="M36.286 23.0483L37.9764 28.02H36.4849L36.286 27.3854H34.6951L34.4962 28.02H33.0047L34.6951 23.0483H36.286ZM35.9877 26.3275L35.4906 24.5292L34.9934 26.3275H35.9877Z" fill="#0767B0"/>
    <path d="M43.5006 23.0483V27.9164H41.9787V24.1876H40.8622V25.5342C40.8622 27.5021 40.2535 28.02 39.3403 28.02C39.036 28.02 38.8332 28.02 38.5288 27.9164V26.7771C38.6305 26.7771 38.7316 26.7771 38.9349 26.7771C39.2392 26.7771 39.442 26.6735 39.442 25.5342V23.0483H43.5006Z" fill="#0767B0"/>
    <path d="M45.9472 24.7408H46.7758C48.1961 24.7408 49.0247 25.2697 49.0247 26.4333C49.0247 27.4911 48.1961 28.02 46.6571 28.02H44.053V23.0483H45.8284V24.7408H45.9472ZM45.9472 26.7506H46.6571C47.1305 26.7506 47.4857 26.6448 47.4857 26.3275C47.4857 25.9044 47.0123 25.9044 46.5388 25.9044H46.0654V26.7506H45.9472Z" fill="#0767B0"/>
    <path d="M51.2344 24.8466H52.8916V23.0483H54.5489V28.02H52.8916V26.0102H51.2344V28.02H49.5771V23.0483H51.2344V24.8466Z" fill="#0767B0"/>
    <path d="M60.073 23.0483V24.2119H57.1408V24.9524H59.5631V26.116H57.1408V26.8564H60.073V28.02H55.1013V23.0483H60.073Z" fill="#0767B0"/>
    <path d="M60.6254 23.0483H63.1693C64.441 23.0483 65.3657 23.2599 65.3657 24.3177C65.3657 24.8466 65.0188 25.1639 64.6724 25.3755C65.2502 25.4813 65.5972 26.0102 65.5972 26.5391C65.5972 27.7027 64.6724 28.02 63.2847 28.02H60.6254V23.0483ZM62.36 25.0581H63.0533C63.4002 25.0581 63.6317 24.9524 63.6317 24.635C63.6317 24.2119 63.2848 24.2119 62.9378 24.2119H62.36V25.0581ZM62.36 26.8564H63.1693C63.6317 26.8564 63.9786 26.7506 63.9786 26.4333C63.9786 26.0102 63.5162 26.0102 63.0533 26.0102H62.4755V26.8564H62.36Z" fill="#0767B0"/>
    <path d="M71.1213 25.4864C71.1213 27.1079 70.0275 28.02 68.6354 28.02C67.1439 28.02 66.1496 27.1079 66.1496 25.4864C66.1496 23.9663 67.1439 23.0542 68.6354 23.0542C70.3258 22.9529 71.1213 24.169 71.1213 25.4864ZM67.7405 25.4864C67.7405 26.0945 67.9394 26.9053 68.6354 26.9053C69.3315 26.9053 69.5303 26.2972 69.5303 25.4864C69.5303 24.8784 69.232 24.169 68.6354 24.169C67.9394 24.169 67.7405 24.8784 67.7405 25.4864Z" fill="#0767B0"/>
    <path d="M75.0589 25.037C75.0589 24.5398 74.6358 24.2415 74.2126 24.2415C73.6834 24.2415 73.2603 24.7387 73.2603 25.6336C73.2603 26.3296 73.3663 26.9262 74.2126 26.9262C74.7413 26.9262 74.9529 26.6279 75.0589 26.1308H76.6455C76.54 27.324 75.5876 28.02 74.3181 28.02C72.6255 28.02 71.6737 27.0257 71.6737 25.5342C71.6737 24.0426 72.7316 23.0483 74.1066 23.0483C75.5876 23.0483 76.4339 23.7443 76.6455 24.9376H75.0589V25.037Z" fill="#0767B0"/>
    <path d="M80.551 28.02H78.8164V24.2119H77.1979V23.0483H82.1696V24.2119H80.551V28.02Z" fill="#0767B0"/>
    <path d="M87.6937 25.4864C87.6937 27.1079 86.6 28.02 85.2079 28.02C83.7164 28.02 82.722 27.1079 82.722 25.4864C82.722 23.9663 83.7164 23.0542 85.2079 23.0542C86.8983 22.9529 87.6937 24.169 87.6937 25.4864ZM84.313 25.4864C84.313 26.0945 84.5118 26.9053 85.2079 26.9053C85.9039 26.9053 86.1028 26.2972 86.1028 25.4864C86.1028 24.8784 85.8045 24.169 85.2079 24.169C84.5118 24.169 84.313 24.8784 84.313 25.4864Z" fill="#0767B0"/>
    <path d="M89.9808 23.2554V24.4984C89.9808 24.9127 90.2117 25.0163 90.674 25.0163C91.021 25.0163 91.3679 25.0163 91.4833 24.9127V23.0483H93.2179V28.02H91.4833V26.052C91.137 26.1556 90.9055 26.1556 89.9808 26.1556C89.1709 26.1556 88.2462 25.7413 88.2462 24.602V23.0483H89.9808V23.2554Z" fill="#0767B0"/>
    <path d="M95.4994 24.8466H97.013V23.0483H98.7421V28.02H97.013V26.0102H95.4994V28.02H93.7703V23.0483H95.4994V24.8466Z" fill="#0767B0"/>
    <path d="M100.964 24.7845H101.8C103.135 24.7845 103.971 25.3369 103.971 26.4417C103.971 27.5466 103.135 28.02 101.8 28.02H99.2945V23.0483H101.048V24.7845H100.964ZM100.964 26.8363H101.633C102.05 26.8363 102.384 26.7574 102.384 26.3628C102.384 25.8893 101.966 25.8893 101.465 25.8893H101.048V26.8363H100.964ZM106.476 28.02H104.722V23.0483H106.476V28.02Z" fill="#0767B0"/>
    <path d="M112 23.1945V28.02H110.343V26.5456L110.453 25.366L108.575 28.02H107.028V23.1945H107.857H108.686V24.8745L108.575 26.0541L110.453 23.1945H112ZM108.851 21.9435C108.851 22.3367 109.293 22.3367 109.625 22.3367C110.067 22.3367 110.288 22.2384 110.288 21.9435H110.84C110.84 22.6315 110.177 22.9264 109.514 22.9264C108.741 22.9264 108.299 22.6315 108.188 21.9435H108.851Z" fill="#0767B0"/>
    <path d="M31.3408 30.7821V31.3259H31.7734C33.3306 31.3259 34.1095 32.1804 34.1095 33.1903C34.1095 34.2778 33.4173 35.0547 31.8601 35.0547H31.4276V35.7538H29.6101V35.0547H29.1776C27.6203 35.0547 26.9281 34.2778 26.9281 33.1903C26.9281 32.1804 27.6203 31.3259 29.2643 31.3259H29.6968V30.7821H31.3408ZM29.5239 32.4912H29.2643C28.745 32.4912 28.4854 32.7242 28.4854 33.1903C28.4854 33.5787 28.6589 33.8894 29.1776 33.8894H29.5239V32.4912ZM31.3408 33.8118H31.6866C32.1197 33.8118 32.3788 33.501 32.3788 33.1126C32.3788 32.6465 32.1197 32.4134 31.6005 32.4134H31.3408V33.8118Z" fill="#0767B0"/>
    <path d="M39.5381 30.7821V31.8869H36.5744V32.5972H39.0603V33.7809H36.5744V34.5701H39.6337V35.7538H34.6619V30.7821H39.5381Z" fill="#0767B0"/>
    <path d="M45.2296 30.7821V34.4649H45.7102V36.3063H44.1088V35.6157H41.7875V36.3063H40.1861V34.4649H40.5866C40.9064 33.7744 41.0666 33.0839 41.0666 32.0097V30.7821H45.2296ZM42.588 31.8562V32.3933C42.588 33.1606 42.5079 33.9278 42.1875 34.4649H43.6287V31.8562H42.588Z" fill="#0767B0"/>
    <path d="M51.0466 30.7821V31.8869H48.2326V32.5972H50.6715V33.7809H48.2326V34.5701H51.2344V35.7538H46.2627V30.7821H51.0466Z" fill="#0767B0"/>
    <path d="M53.6186 35.7538H51.7868V30.7821H54.4036C55.9736 30.7821 56.7585 31.4135 56.7585 32.4393C56.7585 33.5442 56.0608 34.1755 54.4909 34.1755H53.6186V35.7538ZM53.6186 32.9918H54.4036C54.8394 32.9918 55.1013 32.8339 55.1013 32.4393C55.1013 31.9659 54.4909 31.8869 54.1417 31.8869H53.6186V32.9918Z" fill="#0767B0"/>
    <path d="M59.9979 30.7821L61.7303 35.7538H60.1482L59.9979 35.1225H58.4158L58.265 35.7538H56.7585L58.4909 30.7821H59.9979ZM59.6963 34.0177L59.1693 32.2026L58.7169 34.0177H59.6963Z" fill="#0767B0"/>
    <path d="M67.2544 30.7821V35.6762H65.696V31.8696H64.5829V33.268C64.5829 35.21 63.9896 35.7538 63.0992 35.7538C62.802 35.7538 62.5793 35.7538 62.2827 35.6762V34.5109C62.3567 34.5109 62.4313 34.5886 62.6539 34.5886C62.9506 34.5886 63.0992 34.4332 63.0992 33.268V30.7821H67.2544Z" fill="#0767B0"/>
    <path d="M69.5823 32.5183H70.47C71.8908 32.5183 72.7786 33.0707 72.7786 34.1755C72.7786 35.2804 71.8908 35.7538 70.47 35.7538H67.8068V30.7821H69.6712V32.5183H69.5823ZM69.5823 34.5701H70.2927C70.7368 34.5701 71.0915 34.4912 71.0915 34.0966C71.0915 33.6231 70.6479 33.6231 70.1154 33.6231H69.6712V34.5701H69.5823Z" fill="#0767B0"/>
    <path d="M74.9882 32.5183H76.6454V30.7821H78.3027V35.7538H76.6454V33.6231H74.9882V35.7538H73.3309V30.7821H74.9882V32.5183Z" fill="#0767B0"/>
    <path d="M80.5251 32.5183H81.3603C82.696 32.5183 83.5313 33.0707 83.5313 34.1755C83.5313 35.2804 82.696 35.7538 81.3603 35.7538H78.8551V30.7821H80.6085V32.5183H80.5251ZM80.5251 34.5701H81.1935C81.6105 34.5701 81.9448 34.4912 81.9448 34.0966C81.9448 33.6231 81.5271 33.6231 81.0261 33.6231H80.6085V34.5701H80.5251ZM86.0365 35.7538H84.2831V30.7821H86.0365V35.7538Z" fill="#0767B0"/>
    <path d="M91.5607 30.9283V35.7538H89.9034V34.2794L90.0139 33.0998L88.1357 35.7538H86.5889V30.9283H87.4176H88.2462V32.6083L88.1357 33.7879L90.0139 30.9283H91.5607ZM88.4119 29.6773C88.4119 30.0705 88.8538 30.0705 89.1853 30.0705C89.6272 30.0705 89.8482 29.9722 89.8482 29.6773H90.4006C90.4006 30.3654 89.7377 30.6602 89.0748 30.6602C88.3014 30.6602 87.8595 30.3654 87.749 29.6773H88.4119Z" fill="#0767B0"/>
    <path d="M28.8224 38.5159L29.6902 40.4336L30.558 38.5159H32.4523L30.4796 42.2802C30.0056 43.1325 29.5322 43.4876 28.9008 43.4876C28.5854 43.4876 28.2699 43.4166 28.112 43.3456V42.2802C28.191 42.2802 28.2699 42.3513 28.5064 42.3513C28.6644 42.3513 28.8224 42.2802 28.9008 42.0672L26.9281 38.5159H28.8224Z" fill="#0767B0"/>
    <path d="M34.6619 40.2706H36.2441V38.5159H37.9764V43.4876H36.2441V41.4404H34.6619V43.4876H33.0047V38.5159H34.6619V40.2706Z" fill="#0767B0"/>
    <path d="M43.5006 38.5159V43.4876H41.8941V41.9523L41.9709 40.6362L40.1353 43.4876H38.5288V38.5159H40.1353V40.1244L40.0585 41.3674L41.9709 38.5159H43.5006Z" fill="#0767B0"/>
    <path d="M44.1331 38.5159H46.699C47.9022 38.5159 48.8645 38.8041 48.8645 39.7408C48.8645 40.2452 48.4635 40.6055 48.1425 40.8216C48.7038 40.9657 49.0247 41.3981 49.0247 41.9745C49.0247 43.0553 48.0624 43.4876 46.699 43.4876H44.053V38.5159H44.1331ZM45.8975 40.4613H46.6189C46.9399 40.4613 47.2603 40.3173 47.2603 40.029C47.2603 39.6688 46.9399 39.6688 46.5388 39.6688H45.8975V40.4613ZM45.8975 42.2627H46.699C47.1001 42.2627 47.5012 42.1907 47.5012 41.8304C47.5012 41.3981 47.1001 41.3981 46.5388 41.3981H45.9776V42.2627H45.8975Z" fill="#0767B0"/>
    <path d="M54.5489 38.5159V39.6857H51.5305V40.4169H54.0164V41.5867H51.5305V42.3178H54.5489V43.4876H49.5771V38.5159H54.5489Z" fill="#0767B0"/>
    <path d="M56.8657 43.4876H55.1013V38.5159H57.7473C59.3515 38.5159 60.073 39.1739 60.073 40.1975C60.073 41.2942 59.3515 41.9523 57.8274 41.9523H56.9458V43.4876H56.8657ZM56.8657 40.7824H57.5871C57.9882 40.7824 58.3086 40.6362 58.3086 40.1975C58.3086 39.7588 57.7473 39.6857 57.3468 39.6857H56.8657V40.7824Z" fill="#0767B0"/>
    <path d="M64.1349 40.4494C64.062 39.966 63.7692 39.6898 63.2577 39.6898C62.6727 39.6898 62.307 40.1731 62.307 41.0708C62.307 41.7613 62.4534 42.3828 63.2577 42.3828C63.7692 42.3828 64.062 42.0375 64.062 41.5542H65.5972C65.4508 42.7971 64.5006 43.4876 63.2577 43.4876C61.6491 43.4876 60.6254 42.5209 60.6254 41.0018C60.6254 39.4826 61.722 38.5159 63.1113 38.5159C64.6465 38.5159 65.4508 39.2064 65.5972 40.4494H64.1349Z" fill="#0767B0"/>
    <path d="M71.1213 38.5159V43.4876H69.4641V41.9523L69.6149 40.6362L67.7317 43.4876H66.1496V38.5159H67.8068V40.1244L67.656 41.3674L69.5392 38.5159H71.1213Z" fill="#0767B0"/>
    <path d="M75.5047 43.4876H73.4558V39.6857H71.6737V38.5159H77.1979V39.6857H75.5047V43.4876Z" fill="#0767B0"/>
    <path d="M82.722 38.5159V39.6857H79.6694V40.4169H82.1116V41.5867H79.6694V42.3178H82.722V43.4876H77.7503V38.5159H82.722Z" fill="#0767B0"/>
    <path d="M86.6425 43.4876H84.8781V39.6857H83.2744V38.5159H88.2462V39.6857H86.6425V43.4876Z" fill="#0767B0"/>
    <defs>
        <linearGradient id="paint0_linear_1332_40104" x1="20.0163" y1="23.9126" x2="2.9351" y2="23.1805" gradientUnits="userSpaceOnUse">
            <stop stop-color="#0668B3"/>
            <stop offset="0.12" stop-color="#188CCC"/>
            <stop offset="0.2909" stop-color="#0668B3"/>
            <stop offset="0.62" stop-color="#0859A5"/>
            <stop offset="0.8412" stop-color="#214397"/>
            <stop offset="1" stop-color="#2E3790"/>
        </linearGradient>
        <linearGradient id="paint1_linear_1332_40104" x1="20.0588" y1="32.0814" x2="1.55406" y2="31.024" gradientUnits="userSpaceOnUse">
            <stop stop-color="#0668B3"/>
            <stop offset="0.12" stop-color="#188CCC"/>
            <stop offset="0.2909" stop-color="#0668B3"/>
            <stop offset="0.62" stop-color="#0859A5"/>
            <stop offset="0.8412" stop-color="#214397"/>
            <stop offset="1" stop-color="#2E3790"/>
        </linearGradient>
        <linearGradient id="paint2_linear_1332_40104" x1="13.5332" y1="28.0155" x2="1.98328" y2="15.2045" gradientUnits="userSpaceOnUse">
            <stop stop-color="#71D0F6"/>
            <stop offset="0.2992" stop-color="#40B5E7"/>
            <stop offset="0.4" stop-color="#2FABE1"/>
            <stop offset="0.4466" stop-color="#2FA1DA"/>
            <stop offset="0.8254" stop-color="#2E55A5"/>
            <stop offset="1" stop-color="#2E3790"/>
        </linearGradient>
        <linearGradient id="paint3_linear_1332_40104" x1="10.1248" y1="20.1382" x2="5.20387" y2="13.1429" gradientUnits="userSpaceOnUse">
            <stop stop-color="#71D0F6"/>
            <stop offset="0.2992" stop-color="#40B5E7"/>
            <stop offset="0.4" stop-color="#2FABE1"/>
            <stop offset="0.4466" stop-color="#2FA1DA"/>
            <stop offset="0.8254" stop-color="#2E55A5"/>
            <stop offset="1" stop-color="#2E3790"/>
        </linearGradient>
        <linearGradient id="paint4_linear_1332_40104" x1="19.9462" y1="41.425" x2="-1.20248" y2="40.4489" gradientUnits="userSpaceOnUse">
            <stop stop-color="#0668B3"/>
            <stop offset="0.12" stop-color="#188CCC"/>
            <stop offset="0.2909" stop-color="#0668B3"/>
            <stop offset="0.62" stop-color="#0859A5"/>
            <stop offset="0.8412" stop-color="#214397"/>
            <stop offset="1" stop-color="#2E3790"/>
        </linearGradient>
        <linearGradient id="paint5_linear_1332_40104" x1="16.1511" y1="37.3857" x2="0.249261" y2="18.7589" gradientUnits="userSpaceOnUse">
            <stop stop-color="#71D0F6"/>
            <stop offset="0.2992" stop-color="#40B5E7"/>
            <stop offset="0.4" stop-color="#2FABE1"/>
            <stop offset="0.4466" stop-color="#2FA1DA"/>
            <stop offset="0.8254" stop-color="#2E55A5"/>
            <stop offset="1" stop-color="#2E3790"/>
        </linearGradient>
    </defs>
</svg>
