<svg width="112" height="64" viewBox="0 0 112 64" fill="none" xmlns="http://www.w3.org/2000/svg">
    <path d="M44.1436 37.1284H43.5756V50.9416H44.1436V37.1284Z" fill="#1C2353"/>
    <path d="M49.0583 37.1284H48.4903V49.0425H49.0583V37.1284Z" fill="#1C2353"/>
    <path d="M53.9787 37.1284H53.4106V49.0425H53.9787V37.1284Z" fill="#1C2353"/>
    <path d="M58.8981 37.1284H58.3304V49.0425H58.8981V37.1284Z" fill="#1C2353"/>
    <path d="M63.8191 37.1284H63.2515V49.0425H63.8191V37.1284Z" fill="#1C2353"/>
    <path d="M68.7369 37.1397H68.1688V50.9528H68.7369V37.1397Z" fill="#1C2353"/>
    <path d="M45.6507 50.021H66.6545V49.4529H45.6507V50.021Z" fill="#1C2353"/>
    <path d="M44.489 50.9393H67.8224V50.3713H44.489V50.9393Z" fill="#1C2353"/>
    <path d="M43.563 51.8609H68.738V51.2929H43.563V51.8609Z" fill="#1C2353"/>
    <path d="M45.308 44.461H46.0846V49.0416H46.5447V44.461H47.3218V49.0416H48.144V37.1267H44.4857V50.0203H45.3079L45.308 44.461Z" fill="#1C2353"/>
    <path d="M50.2273 44.461H51.0043V49.0416H51.464V44.461H52.2411V49.0416H53.0636V37.1267H49.4051V49.0416H50.2273L50.2273 44.461Z" fill="#1C2353"/>
    <path d="M55.1492 44.461H55.9258V49.0416H56.3859V44.461H57.1629V49.0416H57.9855V37.1267H54.3269V49.0416H55.1491L55.1492 44.461Z" fill="#1C2353"/>
    <path d="M60.0701 44.461H60.8468V49.0416H61.3069V44.461H62.0839V49.0416H62.9061V37.1267H59.2479V49.0416H60.0701L60.0701 44.461Z" fill="#1C2353"/>
    <path d="M64.9879 44.461H65.7645V49.0416H66.2246V44.461H67.0017V50.0203H67.8239V37.1267H64.1656V49.0416H64.9878L64.9879 44.461Z" fill="#1C2353"/>
    <path d="M35.5645 51.8609H36.3867V40.3045H37.1637V51.8609H37.6238V40.3045H38.4008V51.8609H39.223V35.7188H35.5645L35.5645 51.8609Z" fill="#1C2353"/>
    <path d="M39.5721 51.8609H40.3943L40.3941 42.695H41.1711L41.1714 51.8609H41.6315L41.6312 42.695H42.4082V51.8609H43.2308V40.304H39.5722L39.5721 51.8609Z" fill="#1C2353"/>
    <path d="M23.039 40.3026L23.0393 51.8593H23.8611V42.6934H24.6362V51.8593H25.1067V42.6934H25.8818V51.8593H26.7017V42.6934H27.4768V51.8593H27.9472V42.6934H28.7224V51.8593H29.54V42.6934H30.3151V51.8593H30.7855V42.6934H31.5606V51.8593H32.3805V42.6934H33.1556V51.8593H33.6261V42.6934H34.4012V51.8593H35.2188L35.2185 40.3026H23.039Z" fill="#1C2353"/>
    <path d="M73.0895 51.8609H73.9117V40.3045H74.6887V51.8609H75.1488V40.3045H75.9254V51.8609H76.748V35.7188H73.0894L73.0895 51.8609Z" fill="#1C2353"/>
    <path d="M69.0836 51.8609H69.9058V42.695H70.6833L70.6829 51.8609H71.143V42.695H71.9201L71.9197 51.8609H72.7423V40.304H69.0838L69.0836 51.8609Z" fill="#1C2353"/>
    <path d="M77.0937 40.3026L77.0934 51.8593H77.9114V42.6934H78.6861V51.8593H79.1569V42.6934H79.9316V51.8593H80.7519V42.6934H81.5267V51.8593H81.9975V42.6934H82.7722V51.8593H83.5902V42.6934H84.3649V51.8593H84.8357V42.6934H85.6105V51.8593H86.4308V42.6934H87.2055V51.8593H87.6759V42.6934H88.451V51.8593H89.2729L89.2732 40.3026H77.0937Z" fill="#1C2353"/>
    <path d="M23.039 54.6224H89.2742V53.2471H23.039V54.6224Z" fill="#16479E"/>
    <path d="M23.039 53.2369H89.2742V51.8616H23.039V53.2369Z" fill="white"/>
    <path d="M23.039 56H89.2742V54.6243H23.039V56Z" fill="#D22A2B"/>
    <path d="M56.7402 8.13455L49.6786 17.3454V8.13455H47.9898V20.0745H49.5592L56.6372 10.881V20.0745H58.3095V8.13455H56.7402ZM38.9428 8.13455V20.0745H40.632L40.6144 9.61855H45.1682L45.1854 8.13458L38.9428 8.13455ZM34.2915 8.13455L29.3795 16.5262L24.3986 8.13455H23V20.0745H24.6378V11.4267L28.9527 18.6245H29.7374L34.0526 11.3758L34.0698 20.0745H35.7073L35.6901 8.13455H34.2915Z" fill="#1C2353"/>
    <path d="M74.1443 20.0759L74.1274 8.13599H72.7288L67.816 16.528L62.8359 8.13599H61.437V20.0759H63.0744V11.4282L67.3902 18.626H68.1744L72.4901 11.3768L72.507 20.0758L74.1443 20.0759Z" fill="#1C2353"/>
    <path d="M26.223 24.2488L24.8179 26.9132L23.4464 24.2488H23.002L24.5986 27.2783L24.486 27.4696C24.321 27.7506 24.1098 27.8911 23.851 27.8911C23.7385 27.8911 23.6148 27.865 23.4797 27.8126L23.3618 28.1498C23.5345 28.221 23.6952 28.2566 23.8453 28.2566C24.0474 28.2566 24.2341 28.1992 24.4049 28.0851C24.5748 27.9707 24.7241 27.7958 24.8515 27.5592L26.6387 24.2487L26.223 24.2488ZM32.4226 24.2488V26.0022H29.9607V24.2488H29.5446V28.1836H29.9607V26.3682H32.4226V28.1836H32.833V24.2488H32.4226ZM36.4187 28.1836H36.7957L39.3135 24.929V28.1836H39.7242V24.2488H39.3476L36.8289 27.5088V24.2488H36.4186L36.4187 28.1836ZM45.6425 26.1545C45.845 26.0791 46.0023 25.9658 46.1149 25.8143C46.227 25.6623 46.2833 25.4763 46.2833 25.255C46.2833 24.9289 46.1654 24.6797 45.9288 24.5071C45.6934 24.3349 45.3654 24.2488 44.9455 24.2488H43.31V28.1836H45.0523C45.5208 28.1836 45.8756 28.0918 46.1175 27.908C46.3594 27.7247 46.48 27.4621 46.48 27.1211C46.48 26.8589 46.4088 26.6464 46.2664 26.4834C46.124 26.3203 45.9162 26.2104 45.6425 26.1545ZM43.7199 24.5803H44.9233C45.2264 24.5803 45.4599 24.6423 45.623 24.7659C45.7857 24.8892 45.8672 25.0695 45.8672 25.3056C45.8672 25.5418 45.7857 25.7213 45.623 25.845C45.4599 25.969 45.2265 26.0306 44.9233 26.0306H43.7199V24.5803ZM45.0523 27.8518H43.7199V26.3509H45.0523C45.7305 26.3509 46.0697 26.5986 46.0697 27.0931C46.0697 27.5991 45.7305 27.8518 45.0523 27.8518ZM50.195 27.8238V26.3621H52.2297V26.008H50.195V24.6086H52.477V24.2488H49.7788V28.1837H52.5611V27.8239L50.195 27.8238ZM57.2153 24.2488H55.7428V28.1836H56.1584V26.9412H57.2152C57.7174 26.9412 58.1109 26.8221 58.3961 26.5844C58.6805 26.3464 58.8228 26.0176 58.8228 25.5981C58.8228 25.1782 58.6805 24.8486 58.3961 24.6086C58.1109 24.3686 57.7174 24.2488 57.2153 24.2488ZM57.2038 26.5761H56.1584V24.6086H57.2038C57.5938 24.6086 57.8912 24.6936 58.0975 24.8643C58.3038 25.035 58.4072 25.2792 58.4072 25.5981C58.4072 25.9089 58.3038 26.1496 58.0975 26.3203C57.8912 26.4907 57.5938 26.5761 57.2038 26.5761ZM63.7123 28.2169C64.0051 28.2169 64.2754 28.1675 64.5249 28.0684C64.7745 27.9692 64.985 27.8257 65.1572 27.6381L64.8931 27.3744C64.5896 27.6887 64.2019 27.846 63.7295 27.846C63.4187 27.846 63.1355 27.7748 62.8806 27.6328C62.6256 27.4904 62.4266 27.2952 62.2819 27.0483C62.1376 26.8007 62.0656 26.5232 62.0656 26.2162C62.0656 25.9088 62.1376 25.6313 62.2819 25.3844C62.4266 25.1368 62.6256 24.942 62.8806 24.7996C63.1355 24.6572 63.4187 24.586 63.7295 24.586C64.198 24.586 64.5858 24.7418 64.8931 25.0522L65.1572 24.7881C64.985 24.6009 64.7752 24.4585 64.528 24.3609C64.2803 24.2637 64.0109 24.2151 63.718 24.2151C63.3288 24.2151 62.9762 24.3012 62.6612 24.4734C62.3466 24.6461 62.1005 24.8849 61.9225 25.19C61.7441 25.4954 61.6553 25.8376 61.6553 26.2162C61.6553 26.5943 61.7441 26.9365 61.9225 27.242C62.1005 27.5474 62.3458 27.7863 62.6586 27.9585C62.9717 28.1311 63.323 28.2169 63.7123 28.2169ZM68.2767 28.1836H68.6534L71.1712 24.929V28.1836H71.5819V24.2487H71.2052L68.6866 27.5088V24.2487H68.2767L68.2767 28.1836ZM77.7417 24.2487H74.5663V24.6085H75.9488V28.1836H76.3588V24.6085H77.7417L77.7417 24.2487ZM81.1479 27.8238V26.362H83.1826V26.0079H81.1479V24.6086H83.4298V24.2488H80.7317V28.1836H83.5145V27.8238L81.1479 27.8238ZM89.2697 24.2487H86.0939V24.6085H87.4765V28.1836H87.8872V24.6085H89.2697V24.2487Z" fill="#1C2353"/>
    <path d="M89.2718 14.0985C89.2718 10.5893 86.5802 8 82.952 8C79.2893 8 76.5977 10.6063 76.5977 14.0985C76.5977 17.5904 79.2893 20.197 82.952 20.197C86.5802 20.197 89.2718 17.6076 89.2718 14.0985ZM82.952 18.6814C80.2777 18.6814 78.3014 16.7388 78.3014 14.0985C78.3014 11.4579 80.2777 9.51563 82.952 9.51563C85.5923 9.51563 87.5686 11.4577 87.5686 14.0985C87.5686 16.7388 85.5923 18.6814 82.952 18.6814Z" fill="#1C2353"/>
</svg>
