<svg width="112" height="64" viewBox="0 0 112 64" fill="none" xmlns="http://www.w3.org/2000/svg">
    <path fill-rule="evenodd" clip-rule="evenodd" d="M57.3752 40.6414V35.0716C57.3394 35.0451 57.3006 35.0229 57.2597 35.0055L55.1226 35.2946V35.8599L56.0112 36.0962V40.0766C55.7384 40.2475 55.4457 40.3843 55.1397 40.484C54.8411 40.5801 54.5929 40.6281 54.3966 40.6281C54.0219 40.6281 53.7561 40.5254 53.6026 40.3195C53.4485 40.1137 53.372 39.8008 53.372 39.38C53.372 38.6536 53.3701 37.9333 53.3658 37.2192C53.361 36.506 53.3591 35.7895 53.3591 35.0716L53.2422 35.0193L51.1065 35.3079V35.8594C51.2524 35.9036 51.3984 35.945 51.5444 35.9849C51.6903 36.0239 51.8358 36.0657 51.9818 36.109V39.9449C51.9818 40.6105 52.1387 41.075 52.452 41.3379C52.7648 41.6008 53.2046 41.7321 53.7713 41.7321C53.9601 41.7321 54.1721 41.7188 54.4084 41.6921C54.6443 41.666 54.8653 41.6265 55.0712 41.5742C55.3893 41.2859 55.7027 40.9923 56.0112 40.6937C56.0197 40.7027 56.0278 40.707 56.0368 40.707L56.3326 41.666L56.4357 41.7054L58.3665 41.443V40.8777C58.1954 40.8344 58.028 40.7945 57.8649 40.7598C57.7007 40.7247 57.5374 40.6852 57.3752 40.6414ZM65.588 36.8055C65.588 36.1665 65.4378 35.7063 65.1364 35.4267C64.8354 35.1462 64.3956 35.0064 63.8194 35.0064C63.6211 35.0064 63.4039 35.0188 63.1666 35.0454C62.9298 35.0716 62.704 35.111 62.4886 35.1638L61.5591 36.0572C61.5506 36.0572 61.5458 36.0543 61.5458 36.0505C61.5458 36.0458 61.542 36.0434 61.5335 36.0434L61.2368 35.0844L61.1217 35.0321C60.8198 35.0852 60.5171 35.1334 60.2136 35.1766C59.9093 35.2209 59.6065 35.2689 59.3065 35.3212V35.8727L60.1946 36.1095V40.6675L59.2161 41.0227L59.2423 41.5742H62.4729L62.4858 40.9961L61.5587 40.7203C61.5506 39.8978 61.5458 39.1609 61.5458 38.5133V36.6876C61.8377 36.5212 62.1211 36.3914 62.3959 36.2996C62.6702 36.2084 62.9279 36.1618 63.1676 36.1618C63.5622 36.1618 63.8332 36.2607 63.9791 36.4575C64.1251 36.6543 64.1978 36.9629 64.1978 37.3837V40.6809L63.2707 41.0089L63.284 41.5737H66.4633L66.4895 40.9961L65.588 40.7203V36.8055ZM68.4398 32.4966C68.2638 32.6715 68.1754 32.8864 68.1754 33.1403C68.1754 33.3947 68.2567 33.611 68.4203 33.7907C68.5833 33.97 68.8016 34.0603 69.0764 34.0603C69.3426 34.0603 69.5613 33.97 69.7334 33.7907C69.8172 33.7047 69.883 33.6029 69.9272 33.4913C69.9713 33.3796 69.9929 33.2603 69.9907 33.1403C69.9907 32.8869 69.9051 32.6715 69.7334 32.4966C69.5609 32.3216 69.3431 32.2341 69.0764 32.2341C68.8277 32.2341 68.6152 32.3216 68.4393 32.4966M69.8043 37.8762C69.7995 36.9348 69.7976 35.9863 69.7976 35.0321L69.6816 34.9798L67.5578 35.3079V35.8594C67.7014 35.9036 67.8474 35.945 67.9952 35.9844C68.1436 36.0244 68.289 36.0652 68.4326 36.1095V40.6547L67.4294 41.0355C67.43 41.2154 67.4385 41.3951 67.4551 41.5742H70.8018C70.8018 41.4777 70.8032 41.3883 70.8079 41.3046C70.8124 41.215 70.8147 41.1253 70.8146 41.0355L69.8233 40.7203C69.8147 39.7656 69.8081 38.8176 69.8043 37.8762ZM77.3187 35.0982L76.5913 35.1243C76.334 35.1329 76.092 35.1419 75.8638 35.1505C75.6366 35.1595 75.4849 35.1633 75.4074 35.1633V35.7548L76.2057 36.0177C76.1795 36.07 76.1325 36.1927 76.064 36.3852C75.9951 36.5778 75.9137 36.8103 75.8191 37.0813C75.7245 37.3532 75.6242 37.6442 75.5172 37.9551L75.2148 38.8285C75.1198 39.1 75.0389 39.3344 74.97 39.5322C74.9284 39.6528 74.8853 39.773 74.8407 39.8926H74.7765L73.5541 36.5692C73.459 36.3244 73.3796 36.0681 73.3159 35.8004C73.2565 35.5655 73.2155 35.3262 73.1933 35.0849L71.0176 35.1771V35.7676L71.687 36.0044C71.9181 36.5414 72.1455 37.0799 72.3693 37.62C72.5324 38.0146 72.7059 38.4368 72.8904 38.8875C73.0753 39.3387 73.2489 39.7614 73.412 40.1555C73.5755 40.5496 73.7191 40.8958 73.8437 41.1929C73.9678 41.4905 74.0514 41.6836 74.0942 41.7715L74.9053 41.6004L76.5917 37.6066C76.7724 37.1863 76.9559 36.8117 77.1456 36.4836C77.323 36.1684 77.5587 35.8897 77.8402 35.6625L77.7761 35.0849C77.6986 35.0849 77.5459 35.0896 77.3187 35.0982ZM83.3392 35.9844C83.1415 35.6996 82.8695 35.4676 82.5215 35.2884C82.1744 35.1087 81.717 35.0193 81.1508 35.0193C80.5413 35.0193 80.0392 35.1196 79.645 35.3212C79.2499 35.5228 78.9366 35.7857 78.7051 36.1095C78.4708 36.439 78.3043 36.8118 78.2154 37.2063C78.121 37.6132 78.0736 38.0296 78.0742 38.4472C78.0742 38.9645 78.1298 39.4262 78.2415 39.8336C78.3528 40.2406 78.5292 40.5867 78.7693 40.8715C79.0094 41.1554 79.3232 41.3726 79.7092 41.5214C80.0953 41.6703 80.5584 41.7449 81.0994 41.7449C81.5625 41.7449 82.0132 41.6745 82.4511 41.5348C82.8885 41.395 83.2703 41.2105 83.5965 40.9832L83.3521 40.2872C82.9998 40.436 82.6627 40.5392 82.3418 40.5953C82.0199 40.6523 81.7603 40.6809 81.5625 40.6809C81.185 40.6809 80.8693 40.6305 80.6164 40.5297C80.3736 40.4367 80.1603 40.2802 79.9988 40.0766C79.84 39.8755 79.7263 39.6254 79.6579 39.3277C79.5885 39.0301 79.5547 38.684 79.5547 38.2899L83.7377 38.0664L83.8541 37.9219C83.8451 37.5986 83.8066 37.2657 83.7377 36.9244C83.6711 36.5869 83.5354 36.2669 83.3392 35.9844ZM79.5804 37.6727C79.5804 37.4887 79.6013 37.2943 79.645 37.0879C79.6878 36.8825 79.7625 36.6895 79.8699 36.5098C79.9787 36.3286 80.1286 36.1756 80.3073 36.0629C80.4923 35.9454 80.7305 35.886 81.0219 35.886C81.2791 35.886 81.486 35.9321 81.64 36.0239C81.7945 36.1161 81.9148 36.234 82.0004 36.3786C82.086 36.5231 82.144 36.6852 82.1744 36.8649C82.2039 37.0442 82.2191 37.2215 82.2191 37.397L79.5804 37.6727ZM89.54 34.9009C89.3256 34.9009 89.1173 34.9361 88.9153 35.0055C88.7164 35.0745 88.5247 35.1627 88.3428 35.2689C88.1626 35.3735 87.9934 35.4919 87.8341 35.6236C87.6758 35.7548 87.5317 35.8817 87.4033 36.0039L87.3772 35.9911L87.1585 35.0716L87.0425 35.006L85.1374 35.3083V35.8599L86.0255 36.0966V40.6547L85.0085 41.0227L85.0347 41.5742H88.3818L88.3946 41.0227L87.39 40.7203V36.4775L89.5015 36.6348C89.6384 36.4599 89.7435 36.2583 89.8167 36.0305C89.889 35.8023 89.9261 35.5836 89.9261 35.3735C89.9261 35.1985 89.8875 35.0763 89.8105 35.006C89.7371 34.9376 89.6403 34.9 89.54 34.9009ZM94.8664 38.5133C94.6851 38.346 94.4816 38.2044 94.2616 38.0925C93.9938 37.9558 93.721 37.8289 93.4439 37.7122C93.1947 37.6071 92.9779 37.5154 92.7935 37.4364C92.6347 37.3709 92.482 37.2917 92.337 37.1997C92.2167 37.1207 92.1283 37.0352 92.0732 36.9429C92.0158 36.8459 91.9868 36.7347 91.9895 36.622C91.9895 36.3762 92.0751 36.1927 92.2462 36.0705C92.4183 35.9473 92.6408 35.886 92.9161 35.886C93.0785 35.8908 93.24 35.9107 93.3987 35.9454C93.6003 35.9844 93.8 36.0652 93.9978 36.1879L94.4732 37.2524L94.9629 37.2001C94.9629 36.9106 94.9648 36.6239 94.9696 36.3391C94.9734 36.0548 94.9753 35.7686 94.9753 35.4785C94.6472 35.3029 94.2931 35.1811 93.9264 35.1177C93.5932 35.0557 93.2551 35.0228 92.9161 35.0193C92.4787 35.0193 92.1093 35.0697 91.8088 35.17C91.5083 35.2708 91.2663 35.4044 91.0814 35.5708C90.8969 35.7372 90.7619 35.9297 90.6763 36.1489C90.5902 36.3676 90.547 36.5954 90.547 36.8321C90.547 37.1207 90.6055 37.3637 90.7215 37.561C90.837 37.7583 90.9915 37.9285 91.1846 38.0735C91.3776 38.2176 91.5944 38.3445 91.8345 38.4544L92.5686 38.7891C92.7573 38.8766 92.9332 38.9578 93.0963 39.0325C93.2594 39.1067 93.403 39.188 93.5275 39.2754C93.6516 39.3625 93.7486 39.4656 93.8171 39.584C93.8856 39.7024 93.9203 39.845 93.9203 40.0105C93.9203 40.3176 93.7976 40.5387 93.5532 40.6742C93.3088 40.8102 92.997 40.8782 92.6199 40.8782C92.4488 40.8782 92.2443 40.8496 92.0085 40.7926C91.7837 40.7408 91.5715 40.6448 91.3842 40.5102L90.8308 39.3406C90.7565 39.3596 90.6813 39.375 90.6055 39.3867C90.5237 39.4 90.4486 39.4152 90.3801 39.4333L90.4833 41.2852C90.7324 41.434 91.049 41.5504 91.4356 41.6332C91.8221 41.7164 92.221 41.7582 92.6328 41.7582C93.1044 41.7582 93.5147 41.7073 93.8623 41.607C94.2098 41.5062 94.4946 41.3684 94.7181 41.1934C94.9415 41.018 95.1065 40.8102 95.2139 40.5687C95.3223 40.3226 95.3771 40.0563 95.3746 39.7875C95.3746 39.4984 95.3319 39.2536 95.2463 39.052C95.1583 38.8479 95.0293 38.6645 94.8664 38.5133ZM97.9568 34.0603C98.223 34.0603 98.4417 33.9704 98.6139 33.7907C98.6977 33.7047 98.7637 33.6028 98.8079 33.4911C98.8522 33.3794 98.8738 33.26 98.8715 33.1398C98.8715 32.8864 98.7855 32.672 98.6139 32.4966C98.4417 32.3221 98.2235 32.2341 97.9568 32.2341C97.7081 32.2341 97.4956 32.3221 97.3197 32.4966C97.1438 32.6725 97.0558 32.8864 97.0558 33.1398C97.0558 33.3942 97.1376 33.611 97.3011 33.7912C97.4637 33.9704 97.682 34.0603 97.9573 34.0603M98.6847 37.8762C98.6799 36.9348 98.678 35.9863 98.678 35.0321L98.5625 34.9798L96.4382 35.3079V35.8594C96.5818 35.9036 96.7278 35.945 96.8756 35.9844C97.024 36.0244 97.1699 36.0652 97.3135 36.1095V40.6547L96.3098 41.0355C96.3098 41.1321 96.3113 41.2214 96.316 41.3046C96.3203 41.3883 96.326 41.4777 96.335 41.5742H99.6822C99.6822 41.4777 99.6846 41.3883 99.6884 41.3046C99.693 41.215 99.6954 41.1253 99.6955 41.0355L98.7042 40.7203C98.6947 39.7656 98.6885 38.8176 98.6847 37.8762ZM104.624 40.5235C104.35 40.5848 104.122 40.6328 103.942 40.6671C103.764 40.7025 103.583 40.7203 103.401 40.7203C103.058 40.7203 102.82 40.6371 102.687 40.4702C102.554 40.3029 102.487 40.0614 102.487 39.7457V35.8993H104.392V35.1638H102.487V33.5088C102.47 33.4909 102.45 33.4754 102.429 33.4627C102.407 33.4496 102.388 33.4342 102.37 33.4165L101.642 33.64L101.175 35.0321C101.003 35.102 100.835 35.1652 100.672 35.2228C100.509 35.2798 100.346 35.343 100.183 35.4129V35.8993H101.097V39.8008C101.097 40.1422 101.123 40.4336 101.175 40.6742C101.227 40.9153 101.318 41.1145 101.448 41.2723C101.578 41.4297 101.753 41.5462 101.974 41.6203C102.194 41.6945 102.473 41.7316 102.809 41.7316C103.487 41.7316 104.161 41.5676 104.83 41.239C104.796 41.1201 104.762 41.0012 104.727 40.8825C104.692 40.763 104.657 40.6436 104.624 40.5235ZM111.968 35.3868C111.955 35.2907 111.944 35.1938 111.935 35.0977L109.567 35.1766C109.567 35.2732 109.565 35.3668 109.56 35.4591C109.557 35.5508 109.554 35.645 109.554 35.741L110.352 36.0172C110.104 36.7327 109.857 37.4486 109.612 38.1648L108.872 40.3262H108.82C108.623 39.7056 108.411 39.09 108.183 38.48C107.954 37.8665 107.742 37.247 107.546 36.622C107.451 36.3415 107.379 36.0705 107.327 35.8071C107.276 35.5442 107.241 35.3079 107.224 35.0977L105.049 35.19V35.7809L105.718 36.0172L106.793 38.8152C107.149 39.7443 107.507 40.6727 107.867 41.6004L108.331 41.6527L108.01 42.507C107.97 42.6146 107.925 42.7198 107.874 42.8223C107.818 42.9354 107.752 43.0457 107.674 43.1503C107.597 43.2557 107.504 43.3487 107.398 43.4261C107.289 43.5058 107.164 43.5598 107.031 43.5839L105.898 42.9269C105.727 43.0058 105.589 43.1242 105.486 43.282C105.388 43.4251 105.334 43.5942 105.332 43.7679C105.332 44.0218 105.447 44.221 105.679 44.3656C105.911 44.5101 106.19 44.5824 106.516 44.5824C107.023 44.5824 107.45 44.4074 107.797 44.057C108.145 43.7061 108.434 43.2421 108.666 42.6639L109.721 40.1422C110.073 39.3011 110.421 38.4563 110.764 37.6071C110.935 37.1863 111.118 36.8103 111.311 36.477C111.504 36.1446 111.734 35.8774 112 35.6759C111.991 35.5798 111.981 35.4833 111.968 35.3868ZM68.0028 26.8535L68.0275 22.169L69.2057 21.878L69.1563 21.0925C69.1563 21.0925 68.6204 21.142 67.9786 21.142C67.3367 21.142 65.6945 21.0925 65.6945 21.0925L65.6327 21.8271L66.712 22.1818V26.2968C66.712 26.6343 66.6835 26.951 66.6255 27.2462C66.5679 27.542 66.4667 27.7973 66.3226 28.0122C66.1738 28.2315 65.9684 28.4064 65.7283 28.5185C65.4773 28.6412 65.1625 28.702 64.7826 28.702C64.3619 28.702 64.0238 28.6436 63.768 28.5247C63.5127 28.4068 63.3149 28.2485 63.1747 28.0502C63.0349 27.8519 62.9417 27.6223 62.8965 27.3599C62.85 27.0837 62.8273 26.8041 62.8286 26.524V22.1818L63.9825 21.8903L63.9454 21.1177C63.9454 21.1177 63.6711 21.1677 62.6013 21.1677C61.5316 21.1677 59.8884 21.1177 59.8884 21.1177L59.8266 21.8399L60.943 22.1946V27.0437C60.943 27.6427 61.0542 28.1348 61.2777 28.5185C61.5011 28.9032 61.7821 29.2046 62.1216 29.4238C62.4601 29.6433 62.8366 29.798 63.2317 29.8797C63.633 29.9639 64.0115 30.0062 64.3671 30.0062C64.7722 30.0062 65.1896 29.9634 65.6204 29.8797C66.0386 29.7999 66.437 29.6385 66.7928 29.4047C67.1437 29.1727 67.4318 28.8523 67.6553 28.4424C67.8787 28.0336 67.9947 27.5039 68.0028 26.8535ZM71.9999 29.7661H72.5833C72.6574 29.7661 72.7896 29.768 72.9798 29.7723L73.5817 29.7846L74.177 29.7975C74.3633 29.8022 74.4812 29.8036 74.5307 29.8036C75.1017 29.8036 75.5981 29.7304 76.0198 29.5821C76.4415 29.4347 76.8014 29.2402 77.099 28.9997C77.3896 28.7679 77.6374 28.4871 77.8312 28.17C78.0214 27.8581 78.1683 27.5401 78.2715 27.2144C78.3751 26.8901 78.4474 26.5687 78.4892 26.2525C78.5301 25.9359 78.551 25.6468 78.551 25.3849C78.551 24.8619 78.4802 24.3427 78.3399 23.8278C78.204 23.3224 77.9652 22.8504 77.6387 22.4414C77.312 22.032 76.8756 21.7002 76.3298 21.4477C75.784 21.1943 75.1093 21.0673 74.3077 21.0673C74.1584 21.0673 74.0115 21.0697 73.867 21.0735C73.7224 21.0783 73.5736 21.0845 73.42 21.093C73.2669 21.1011 73.0977 21.1073 72.9118 21.112C72.7254 21.1163 72.5167 21.1182 72.2852 21.1182H71.8382C71.7061 21.1182 71.572 21.1163 71.4355 21.112C71.2986 21.1073 71.1541 21.1035 71.001 21.0992C70.8169 21.0942 70.6329 21.0879 70.449 21.0802L70.3625 21.8523L71.3547 22.1566V28.7405L70.2507 29.0819L70.3249 29.8036C70.5564 29.7956 70.7656 29.7894 70.9515 29.7846L71.4845 29.7723C71.6542 29.7675 71.8259 29.7661 71.9999 29.7661ZM73.2408 22.2959C73.3311 22.2873 73.4338 22.2816 73.5494 22.2769C73.6644 22.2726 73.7804 22.2702 73.8955 22.2702C74.2439 22.2684 74.5911 22.3132 74.9277 22.4033C75.2534 22.4918 75.5396 22.6506 75.7868 22.8783C76.034 23.1065 76.2318 23.4184 76.3802 23.8149C76.5285 24.2119 76.6027 24.7183 76.6027 25.3345C76.6027 25.7647 76.5613 26.1808 76.4791 26.5816C76.3963 26.9824 76.2627 27.3375 76.0773 27.6451C75.8962 27.9488 75.641 28.2016 75.3356 28.3797C75.0266 28.5613 74.6495 28.6516 74.2045 28.6516C74.0557 28.6516 73.8941 28.645 73.7162 28.6326C73.5561 28.6228 73.3971 28.5995 73.2408 28.5632V22.2959ZM79.1434 29.0567L79.1929 29.8036H82.8039L82.8533 29.0058L81.6253 28.7401L81.5511 23.3343L81.6005 23.321L83.3868 25.7267L86.6008 29.9933L87.5555 29.7908C87.5555 29.6477 87.5602 29.3795 87.5683 28.9873C87.5759 28.5946 87.5845 28.141 87.593 27.6261C87.6011 27.1112 87.6097 26.5649 87.6178 25.9858C87.6259 25.4082 87.6363 24.8595 87.6482 24.3408C87.661 23.8211 87.6691 23.3675 87.6734 22.9791C87.6777 22.5911 87.6839 22.3249 87.6924 22.1818L88.9699 21.878L88.9205 21.0925H85.3475L85.2976 21.8276L86.4891 22.1566L86.6003 26.8031L86.5509 26.8159L85.0247 24.752L82.8909 21.878C82.8073 21.7631 82.7286 21.6448 82.6551 21.5233C82.5664 21.3767 82.4876 21.2244 82.4193 21.0673C82.1792 21.0759 81.7964 21.0864 81.2715 21.0992C80.6449 21.1115 80.0181 21.1093 79.3916 21.0925L79.3051 21.8276L80.5831 22.1942L80.4214 28.702L79.1434 29.0567ZM51.1065 29.0211L51.144 29.8212C51.144 29.8212 52.4672 29.7594 53.2018 29.7594C53.9363 29.7594 55.297 29.8212 55.297 29.8212L55.3351 29.0211L54.1075 28.723V26.1603C54.2691 26.2026 54.698 26.2991 55.2419 26.301L57.8293 30.2558L59.3806 29.9006L59.5413 29.3567L56.8617 25.9925C57.8326 25.6154 58.764 24.8357 58.502 23.0637C58.1825 20.9005 55.849 21.0811 55.1977 21.0811C54.5458 21.0811 52.8818 21.3883 51.425 21.0141L51.2158 21.8338C51.2158 21.8338 51.6024 22.0192 52.2366 22.1642V28.7463L51.1065 29.0211ZM56.5384 23.679C56.5384 24.5176 56.0563 25.3872 54.1075 25.0482V22.3163C54.175 22.3116 54.2406 22.3087 54.3095 22.3021C56.0858 22.1328 56.5384 22.8327 56.5384 23.679Z" fill="#0079C1"/>
    <path fill-rule="evenodd" clip-rule="evenodd" d="M22.6773 43.9467C26.0938 43.6139 28.9779 40.6281 30.2145 36.4998C30.2253 36.461 30.2277 36.4203 30.2215 36.3806C30.2153 36.3408 30.2005 36.3028 30.1784 36.2691C30.1562 36.2355 30.1271 36.2071 30.0929 36.1857C30.0588 36.1643 30.0205 36.1504 29.9806 36.1451C27.6595 35.7928 25.1848 35.5936 22.6469 35.5655C22.609 35.5645 22.5712 35.5709 22.5359 35.5845C22.5005 35.5981 22.4682 35.6186 22.4407 35.6448C22.4133 35.671 22.3914 35.7023 22.3762 35.737C22.3609 35.7717 22.3528 35.8091 22.3521 35.847V43.6686C22.3521 43.8369 22.5042 43.9633 22.6773 43.9467ZM25.839 20.3789C28.1615 21.8005 29.9882 24.5343 30.8426 27.9147C30.8562 27.9717 30.8911 28.0214 30.9402 28.0536C30.9892 28.0857 31.0487 28.098 31.1064 28.0878C34.4488 27.4516 37.4056 26.4594 39.6687 25.1828C39.7021 25.1632 39.7302 25.1358 39.7506 25.1029C39.771 25.07 39.7831 25.0327 39.7857 24.9941C39.7884 24.9555 39.7816 24.9168 39.7659 24.8814C39.7503 24.846 39.7262 24.815 39.6958 24.791C38.9865 24.2471 38.2388 23.7553 37.4584 23.3195C36.2878 22.6615 35.007 22.0886 33.6406 21.606V19.7575C33.6406 19.7466 33.6377 19.7366 33.6372 19.7256V18.9293C33.6372 17.8614 34.4873 16.9923 35.5319 16.9923H37.0143C37.0224 16.9923 37.0291 16.9904 37.0367 16.9899C37.0443 16.9904 37.0514 16.9923 37.059 16.9923C37.3505 16.9923 37.5868 16.7508 37.5868 16.4527V13.5396C37.5868 13.2415 37.3505 13 37.059 13H26.8222C26.5303 13 26.2945 13.2415 26.2945 13.5396V16.4527C26.2945 16.7508 26.5303 16.9923 26.8222 16.9923C26.837 16.9923 26.8507 16.9895 26.866 16.9876C26.8802 16.9895 26.8945 16.9923 26.9097 16.9923H28.3926C29.4367 16.9923 30.2868 17.8614 30.2868 18.9293V20.6423C28.8665 20.3206 27.4275 20.0879 25.9783 19.9453C25.7353 19.921 25.6293 20.2505 25.839 20.3789ZM32.5822 18.9293V19.9325C32.5822 19.9434 32.5846 19.9534 32.5851 19.9643V21.2575C32.4686 21.2219 32.3526 21.1853 32.2351 21.1505V18.5732C32.3374 17.5662 33.0101 16.7318 33.9158 16.4094C33.504 16.6879 33.1669 17.0634 32.9344 17.5028C32.7018 17.9422 32.5809 18.4321 32.5822 18.9293ZM36.5313 14.0788V15.8327H34.7422C33.5079 15.8327 32.4505 16.6139 32.0141 17.7174C31.5776 16.6143 30.5202 15.8327 29.2864 15.8327H27.3495V14.0788H36.5313ZM31.3418 19.9372V18.9288C31.3431 18.4117 31.212 17.9028 30.9609 17.4507C30.7098 16.9986 30.3471 16.6183 29.9074 16.3462C30.9724 16.6238 31.7673 17.5942 31.803 18.76C31.8025 18.7871 31.7992 18.8137 31.7992 18.8408V21.0255C31.647 20.9827 31.4949 20.9399 31.3418 20.9V19.9372Z" fill="#0079C1"/>
    <path fill-rule="evenodd" clip-rule="evenodd" d="M22.558 28.6507C25.22 28.6245 27.8116 28.3968 30.2259 27.9912C29.0863 23.3015 26.0049 19.8897 22.3526 19.7076V28.4448C22.3526 28.5589 22.4453 28.6516 22.558 28.6507Z" fill="#0079C1"/>
    <path fill-rule="evenodd" clip-rule="evenodd" d="M39.7586 39.1438C37.4489 37.9171 34.4574 36.9662 31.0879 36.3562C31.0443 36.3484 30.9993 36.3571 30.9617 36.3805C30.9241 36.404 30.8966 36.4406 30.8844 36.4832C29.962 39.7918 28.0527 42.4415 25.6488 43.7689C25.4791 43.8626 25.557 44.1169 25.7501 44.0998C26.9523 43.9924 28.1487 43.8269 29.3349 43.6039C28.2481 45.1463 26.4732 46.0762 24.5329 46.0762H24.1673C23.1774 46.0776 22.2033 45.8287 21.3354 45.3526C20.4675 44.8766 19.7341 44.1889 19.2032 43.3534C19.9363 43.7199 20.7137 43.9572 21.5229 44.037C21.562 44.0404 21.6013 44.0356 21.6384 44.023C21.6755 44.0103 21.7096 43.9901 21.7384 43.9636C21.7673 43.9371 21.7904 43.9049 21.8061 43.869C21.8219 43.8331 21.83 43.7943 21.83 43.7551V35.8699C21.83 35.712 21.6993 35.5841 21.54 35.586C20.4498 35.5979 19.372 35.6454 18.3117 35.7225V35.1053C19.3753 35.0293 20.4555 34.9822 21.5476 34.9703C21.6222 34.9702 21.6938 34.9406 21.7467 34.888C21.7996 34.8353 21.8295 34.7639 21.83 34.6893V29.6011C21.8294 29.5266 21.7994 29.4553 21.7465 29.4028C21.6936 29.3503 21.6222 29.3207 21.5476 29.3206C20.4555 29.3082 19.3748 29.2617 18.3122 29.1856V28.568C19.3901 28.646 20.4864 28.694 21.5956 28.7049C21.6261 28.7053 21.6564 28.6998 21.6847 28.6885C21.7129 28.6772 21.7387 28.6604 21.7605 28.6391C21.7823 28.6178 21.7997 28.5924 21.8116 28.5644C21.8235 28.5363 21.8298 28.5062 21.83 28.4757V19.9187C20.5706 19.9814 19.3805 20.4212 18.3117 21.1525V20.4065C18.4829 20.3009 18.656 20.2006 18.8319 20.1089C18.9603 20.0414 18.9003 19.8474 18.7549 19.8602C18.6065 19.8726 18.4601 19.8892 18.3122 19.903V19.8935V18.9027C18.3122 17.8519 19.1775 16.9976 20.2406 16.9976H21.7497C21.7554 16.9976 21.7601 16.9961 21.7659 16.9961C21.7716 16.9961 21.7768 16.9976 21.7825 16.9976C22.0792 16.9976 22.3197 16.7598 22.3197 16.467V13.6015C22.3197 13.3081 22.0792 13.0709 21.7825 13.0709H6.23546C5.93878 13.0709 5.6982 13.3086 5.6982 13.6015V16.467C5.6982 16.7598 5.93878 16.9976 6.23546 16.9976L6.24116 16.9971L6.24687 16.9976H7.75593C8.81902 16.9976 9.68386 17.8519 9.68386 18.9027V19.6572L9.6829 19.6667V21.8266C8.62673 22.2201 7.59893 22.6859 6.60678 23.2207C5.79852 23.66 5.05873 24.1288 4.39121 24.6218C4.2248 24.7449 4.24857 24.9974 4.43162 25.0953C5.91881 25.896 7.69935 26.5787 9.6829 27.1307V27.7683C7.31329 27.1222 5.21658 26.2925 3.53873 25.3036L3.53588 25.3007C1.23425 27.2662 0 29.5683 0 31.9893C0 34.4335 1.25803 36.757 3.60339 38.7358C3.64823 38.7733 3.70336 38.7962 3.76151 38.8016C3.81966 38.8071 3.87808 38.7947 3.92907 38.7663C5.53703 37.8739 7.49301 37.1193 9.6829 36.5217V37.1583C7.80965 37.6789 6.11802 38.317 4.6836 39.0601C4.64005 39.0821 4.60296 39.1151 4.57597 39.1557C4.54897 39.1964 4.53299 39.2433 4.52959 39.292C4.52618 39.3407 4.53548 39.3895 4.55656 39.4335C4.57764 39.4775 4.60978 39.5153 4.64985 39.5431C5.27743 39.9866 5.9309 40.3922 6.60678 40.7579C7.76876 41.3893 9.03773 41.9399 10.3904 42.4067C10.4531 42.4286 10.5164 42.4258 10.5734 42.4067C12.4134 46.9458 16.9078 50.1622 22.151 50.1622H22.4453C27.2473 50.1622 31.5486 47.1583 33.1489 42.6873C33.1532 42.6754 33.1542 42.6635 33.1575 42.6511C34.7883 42.1357 36.3097 41.5029 37.6809 40.7579C38.4082 40.3648 39.1092 39.9249 39.7795 39.4409C39.8035 39.4234 39.8227 39.4 39.8352 39.373C39.8478 39.346 39.8532 39.3163 39.8511 39.2866C39.8491 39.2569 39.8395 39.2282 39.8233 39.2032C39.8071 39.1783 39.7848 39.1578 39.7586 39.1438ZM17.2382 18.9027V40.2905C17.2382 44.0656 20.3467 47.1374 24.1673 47.1374H24.5329C27.1574 47.1374 29.527 45.6997 30.7156 43.3852C30.7285 43.361 30.737 43.3353 30.7456 43.3096C30.8335 43.2892 30.9201 43.2678 31.008 43.2469C29.5565 46.2469 26.5203 48.1568 23.1152 48.1568H22.934C18.1083 48.1568 14.1811 44.2771 14.1811 39.5084V19.6619C14.1811 19.6358 14.1778 19.6101 14.1773 19.584C14.2201 17.7564 15.7344 16.2815 17.5943 16.2815H18.8395C17.8886 16.7798 17.2382 17.7673 17.2382 18.9031V18.9027ZM21.2452 14.1321V15.8565H17.5943C16.7996 15.8552 16.0239 16.0997 15.3736 16.5567C14.7234 17.0136 14.2304 17.6605 13.9624 18.4087C13.6944 17.6606 13.2015 17.0137 12.5513 16.5568C11.9012 16.0999 11.1256 15.8553 10.3309 15.8565H6.77223V14.1321H21.2452ZM22.4453 49.101H22.151C15.8684 49.101 10.7569 44.0504 10.7569 37.8425V19.9001L10.7579 19.8897V18.9027C10.7579 17.7668 10.108 16.7793 9.15706 16.2811H10.3309C12.1904 16.2811 13.7052 17.7559 13.7475 19.5835C13.7475 19.6097 13.7437 19.6353 13.7437 19.6615V21.1634C13.7437 21.1772 13.7489 21.1891 13.7518 21.2019V39.5089C13.7518 44.5115 17.871 48.5813 22.934 48.5813H23.1147C26.806 48.5813 30.0847 46.4442 31.5424 43.1147C31.647 43.0876 31.7516 43.0591 31.8562 43.031C30.2283 46.6905 26.5379 49.101 22.4453 49.101Z" fill="#0079C1"/>
    <path fill-rule="evenodd" clip-rule="evenodd" d="M40.6153 25.3963C40.5533 25.3407 40.4752 25.3063 40.3923 25.298C40.3094 25.2898 40.226 25.308 40.1542 25.3502C37.8435 26.6843 34.7883 27.7217 31.3252 28.3883C31.2221 28.4083 31.1311 28.4683 31.0721 28.5551C31.013 28.6419 30.9907 28.7486 31.0099 28.8518C31.1854 29.8312 31.2805 30.8544 31.2805 31.908C31.2805 33.0671 31.1673 34.1906 30.9567 35.2589C30.9139 35.4776 31.0532 35.6882 31.271 35.7296C34.6528 36.3762 37.6471 37.3756 39.944 38.6593C40.089 38.7406 40.2687 38.7244 40.3947 38.6155C42.6664 36.6448 43.8836 34.3356 43.8836 31.9084C43.8836 29.5602 42.7444 27.3233 40.6153 25.3963ZM22.6359 34.8581C25.2238 34.8857 27.7484 35.0901 30.1156 35.4519C30.1867 35.4641 30.2598 35.4489 30.3201 35.4094C30.3805 35.3699 30.4236 35.309 30.4408 35.2389C30.6667 34.1958 30.7879 33.0937 30.7879 31.9541C30.7879 30.9233 30.6871 29.9239 30.5007 28.9697C30.4722 28.8238 30.3267 28.7282 30.1732 28.7515C27.7898 29.119 25.2452 29.3268 22.6364 29.3544C22.5626 29.3533 22.4914 29.3815 22.4383 29.4327C22.3851 29.4839 22.3543 29.554 22.3526 29.6277V34.5852C22.3544 34.6589 22.3853 34.729 22.4384 34.7801C22.4915 34.8313 22.5627 34.8595 22.6364 34.8586" fill="#0079C1"/>
</svg>
