<svg xmlns="http://www.w3.org/2000/svg" width="112" height="64" viewBox="0 0 112 64" fill="none">
    <path d="M32 31.04C32 20.1788 32 14.7483 35.3741 11.3741C38.7483 8 44.1788 8 55.04 8H56.96C67.8212 8 73.2517 8 76.6259 11.3741C80 14.7483 80 20.1788 80 31.04V32.96C80 43.8212 80 49.2517 76.6259 52.6259C73.2517 56 67.8212 56 56.96 56H55.04C44.1788 56 38.7483 56 35.3741 52.6259C32 49.2517 32 43.8212 32 32.96V31.04Z" fill="#0077FF"/>
    <path d="M57.54 42.5801C46.6 42.5801 40.3601 35.0801 40.1001 22.6001H45.5801C45.7601 31.7601 49.8 35.6401 53 36.4401V22.6001H58.1602V30.5001C61.3202 30.1601 64.6398 26.5601 65.7598 22.6001H70.9199C70.0599 27.4801 66.4599 31.0801 63.8999 32.5601C66.4599 33.7601 70.5601 36.9001 72.1201 42.5801H66.4399C65.2199 38.7801 62.1802 35.8401 58.1602 35.4401V42.5801H57.54Z" fill="white"/>
</svg>
